<svg width="142.849mm" height="88.824mm" viewBox="0 0 142.849 88.824" xmlns="http://www.w3.org/2000/svg"><g id="svgGroup" stroke-linecap="round" fill-rule="evenodd" font-size="9pt" stroke="#000" stroke-width="0.25mm" fill="none" style="stroke:#000;stroke-width:0.25mm;fill:none"><path d="M 0 58 L 0 9.655 A 3 3 0 0 1 2.636 6.678 L 56.822 0.061 A 3 3 0 0 1 57.179 0.039 L 75.761 0 A 3 3 0 0 1 76.236 0.037 L 111.468 5.6 A 3 3 0 0 1 114 8.563 L 114 49.439 A 3 3 0 0 0 115.278 51.895 L 141.571 70.325 A 3 3 0 0 1 142.803 73.303 L 140.504 86.344 A 3 3 0 0 1 137.183 88.801 L 87.221 82.662 A 3 3 0 0 1 84.594 79.475 L 85.442 67.35 A 3 3 0 0 0 82.66 64.148 L 38.105 61.007 A 3 3 0 0 0 37.894 61 L 3 61 A 3 3 0 0 1 0 58 Z" vector-effect="non-scaling-stroke"/></g></svg>