0
SECTION
2
HEADER
9
$INSUNITS
70
4
0
ENDSEC
0
SECTION
2
TABLES
0
TABLE
2
LTYPE
0
LTYPE
72
65
70
64
2
CONTINUOUS
3
______
73
0
40
0
0
ENDTAB
0
TABLE
2
LAYER
0
ENDTAB
0
ENDSEC
0
SECTION
2
ENTITIES
0
LINE
8
0
10
90.5
20
-106
11
90.5
21
-57.655966
0
LINE
8
0
10
93.136385
20
-54.6780835
11
147.322011
21
-48.0617334
0
LINE
8
0
10
147.6793101
20
-48.0396225
11
166.261439
21
-48.0005022
0
LINE
8
0
10
166.7356427
20
-48.0372067
11
201.9678878
21
-53.6001928
0
LINE
8
0
10
204.5
20
-56.5634817
11
204.5
21
-97.4392616
0
LINE
8
0
10
205.77803
20
-99.8958485
11
232.0706415
21
-118.3259287
0
LINE
8
0
10
233.3030948
20
-121.3034601
11
231.0035225
21
-134.3449831
0
LINE
8
0
10
227.6832291
20
-136.8016448
11
177.7207271
21
-130.6625572
0
LINE
8
0
10
175.0939051
20
-127.4756814
11
175.941799
21
-115.3502324
0
LINE
8
0
10
173.1600734
20
-112.1483899
11
128.6053523
21
-109.007427
0
LINE
8
0
10
128.3943857
20
-109
11
93.5
21
-109
0
ARC
8
0
10
93.5
20
-57.655966
40
3
50
96.9616516
51
180
0
ARC
8
0
10
147.685626
20
-51.0396159
40
3
50
90.1206249
51
96.9616516
0
ARC
8
0
10
166.2677549
20
-51.0004956
40
3
50
81.0273722
51
90.1206249
0
ARC
8
0
10
201.5
20
-56.5634817
40
3
50
0
51
81.0273722
0
ARC
8
0
10
207.5
20
-97.4392616
40
3
50
180
51
234.9710678
0
ARC
8
0
10
230.3486716
20
-120.7825156
40
3
50
349.9999992
51
54.9710678
0
ARC
8
0
10
228.0490992
20
-133.8240385
40
3
50
262.9949571
51
305.6493105
0
ARC
8
0
10
228.0490992
20
-133.8240385
40
3
50
308.5903776
51
349.9999992
0
ARC
8
0
10
178.0865973
20
-127.6849509
40
3
50
175.9999987
51
217.4096219
0
ARC
8
0
10
178.0865973
20
-127.6849509
40
3
50
220.3372888
51
262.9949571
0
ARC
8
0
10
172.9491068
20
-115.1409629
40
3
50
355.9999987
51
85.9675064
0
ARC
8
0
10
128.3943857
20
-112
40
3
50
85.9675064
51
90
0
ARC
8
0
10
93.5
20
-106
40
3
50
180
51
221.4096223
0
ARC
8
0
10
93.5
20
-106
40
3
50
228.5903777
51
270
0
LINE
8
0
10
91.5156865
20
-108.25
11
108.75
21
-108.25
0
LINE
8
0
10
108.75
20
-108.25
11
108.75
21
-91.75
0
LINE
8
0
10
108.75
20
-91.75
11
91.25
21
-91.75
0
LINE
8
0
10
91.25
20
-91.75
11
91.25
21
-107.9843135
0
LINE
8
0
10
91.25
20
-90.25
11
108.75
21
-90.25
0
LINE
8
0
10
108.75
20
-90.25
11
108.75
21
-73.75
0
LINE
8
0
10
108.75
20
-73.75
11
91.25
21
-73.75
0
LINE
8
0
10
91.25
20
-73.75
11
91.25
21
-90.25
0
LINE
8
0
10
91.25
20
-72.25
11
108.75
21
-72.25
0
LINE
8
0
10
108.75
20
-72.25
11
108.75
21
-55.75
0
LINE
8
0
10
108.75
20
-55.75
11
91.25
21
-55.75
0
LINE
8
0
10
91.25
20
-55.75
11
91.25
21
-72.25
0
LINE
8
0
10
110.25
20
-108.25
11
127.75
21
-108.25
0
LINE
8
0
10
127.75
20
-108.25
11
127.75
21
-91.75
0
LINE
8
0
10
127.75
20
-91.75
11
110.25
21
-91.75
0
LINE
8
0
10
110.25
20
-91.75
11
110.25
21
-108.25
0
LINE
8
0
10
110.25
20
-90.25
11
127.75
21
-90.25
0
LINE
8
0
10
127.75
20
-90.25
11
127.75
21
-73.75
0
LINE
8
0
10
127.75
20
-73.75
11
110.25
21
-73.75
0
LINE
8
0
10
110.25
20
-73.75
11
110.25
21
-90.25
0
LINE
8
0
10
110.25
20
-72.25
11
127.75
21
-72.25
0
LINE
8
0
10
127.75
20
-72.25
11
127.75
21
-55.75
0
LINE
8
0
10
127.75
20
-55.75
11
110.25
21
-55.75
0
LINE
8
0
10
110.25
20
-55.75
11
110.25
21
-72.25
0
LINE
8
0
10
129.25
20
-105.25
11
146.75
21
-105.25
0
LINE
8
0
10
146.75
20
-105.25
11
146.75
21
-88.75
0
LINE
8
0
10
146.75
20
-88.75
11
129.25
21
-88.75
0
LINE
8
0
10
129.25
20
-88.75
11
129.25
21
-105.25
0
LINE
8
0
10
129.25
20
-87.25
11
146.75
21
-87.25
0
LINE
8
0
10
146.75
20
-87.25
11
146.75
21
-70.75
0
LINE
8
0
10
146.75
20
-70.75
11
129.25
21
-70.75
0
LINE
8
0
10
129.25
20
-70.75
11
129.25
21
-87.25
0
LINE
8
0
10
129.25
20
-69.25
11
146.75
21
-69.25
0
LINE
8
0
10
146.75
20
-69.25
11
146.75
21
-52.75
0
LINE
8
0
10
146.75
20
-52.75
11
129.25
21
-52.75
0
LINE
8
0
10
129.25
20
-52.75
11
129.25
21
-69.25
0
LINE
8
0
10
148.25
20
-101.25
11
165.75
21
-101.25
0
LINE
8
0
10
165.75
20
-101.25
11
165.75
21
-84.75
0
LINE
8
0
10
165.75
20
-84.75
11
148.25
21
-84.75
0
LINE
8
0
10
148.25
20
-84.75
11
148.25
21
-101.25
0
LINE
8
0
10
148.25
20
-83.25
11
165.75
21
-83.25
0
LINE
8
0
10
165.75
20
-83.25
11
165.75
21
-66.75
0
LINE
8
0
10
165.75
20
-66.75
11
148.25
21
-66.75
0
LINE
8
0
10
148.25
20
-66.75
11
148.25
21
-83.25
0
LINE
8
0
10
148.25
20
-65.25
11
165.75
21
-65.25
0
LINE
8
0
10
165.75
20
-65.25
11
165.75
21
-48.75
0
LINE
8
0
10
165.75
20
-48.75
11
148.25
21
-48.75
0
LINE
8
0
10
148.25
20
-48.75
11
148.25
21
-65.25
0
LINE
8
0
10
167.25
20
-104.25
11
184.75
21
-104.25
0
LINE
8
0
10
184.75
20
-104.25
11
184.75
21
-87.75
0
LINE
8
0
10
184.75
20
-87.75
11
167.25
21
-87.75
0
LINE
8
0
10
167.25
20
-87.75
11
167.25
21
-104.25
0
LINE
8
0
10
167.25
20
-86.25
11
184.75
21
-86.25
0
LINE
8
0
10
184.75
20
-86.25
11
184.75
21
-69.75
0
LINE
8
0
10
184.75
20
-69.75
11
167.25
21
-69.75
0
LINE
8
0
10
167.25
20
-69.75
11
167.25
21
-86.25
0
LINE
8
0
10
167.25
20
-68.25
11
184.75
21
-68.25
0
LINE
8
0
10
184.75
20
-68.25
11
184.75
21
-51.75
0
LINE
8
0
10
184.75
20
-51.75
11
167.25
21
-51.75
0
LINE
8
0
10
167.25
20
-51.75
11
167.25
21
-68.25
0
LINE
8
0
10
186.25
20
-107.25
11
203.75
21
-107.25
0
LINE
8
0
10
203.75
20
-107.25
11
203.75
21
-90.75
0
LINE
8
0
10
203.75
20
-90.75
11
186.25
21
-90.75
0
LINE
8
0
10
186.25
20
-90.75
11
186.25
21
-107.25
0
LINE
8
0
10
186.25
20
-89.25
11
203.75
21
-89.25
0
LINE
8
0
10
203.75
20
-89.25
11
203.75
21
-72.75
0
LINE
8
0
10
203.75
20
-72.75
11
186.25
21
-72.75
0
LINE
8
0
10
186.25
20
-72.75
11
186.25
21
-89.25
0
LINE
8
0
10
186.25
20
-71.25
11
203.75
21
-71.25
0
LINE
8
0
10
203.75
20
-71.25
11
203.75
21
-54.75
0
LINE
8
0
10
203.75
20
-54.75
11
186.25
21
-54.75
0
LINE
8
0
10
186.25
20
-54.75
11
186.25
21
-71.25
0
LINE
8
0
10
175.7998556
20
-129.6268089
11
193.1531945
21
-130.8402726
0
LINE
8
0
10
193.1531945
20
-130.8402726
11
194.3041763
21
-114.3804657
0
LINE
8
0
10
194.3041763
20
-114.3804657
11
176.8468055
21
-113.1597274
0
LINE
8
0
10
176.8468055
20
-113.1597274
11
175.7036595
21
-129.5074786
0
LINE
8
0
10
194.2286378
20
-130.946304
11
211.5981954
21
-133.0790175
0
LINE
8
0
10
211.5981954
20
-133.0790175
11
213.6090396
21
-116.702006
0
LINE
8
0
10
213.6090396
20
-116.702006
11
196.239482
21
-114.5692925
0
LINE
8
0
10
196.239482
20
-114.5692925
11
194.2286378
21
-130.946304
0
LINE
8
0
10
212.6666156
20
-133.2411881
11
229.7975668
21
-136.2618369
0
LINE
8
0
10
229.9203442
20
-136.1689142
11
232.7659462
21
-120.0307033
0
LINE
8
0
10
232.7659462
20
-120.0307033
11
215.5318105
21
-116.9918602
0
LINE
8
0
10
215.5318105
20
-116.9918602
11
212.6666156
21
-133.2411881
0
ENDSEC
0
EOF