<svg width="142.849mm" height="88.824mm" viewBox="0 0 142.849 88.824" xmlns="http://www.w3.org/2000/svg"><g id="svgGroup" stroke-linecap="round" fill-rule="evenodd" font-size="9pt" stroke="#000" stroke-width="0.25mm" fill="none" style="stroke:#000;stroke-width:0.25mm;fill:none"><path d="M 0 58 L 0 9.655 A 3 3 0 0 1 2.636 6.678 L 56.822 0.061 A 3 3 0 0 1 57.179 0.039 L 75.761 0 A 3 3 0 0 1 76.236 0.037 L 111.468 5.6 A 3 3 0 0 1 114 8.563 L 114 49.439 A 3 3 0 0 0 115.278 51.895 L 141.571 70.325 A 3 3 0 0 1 142.803 73.303 L 140.504 86.344 A 3 3 0 0 1 139.42 88.168 L 142.266 72.03 L 125.032 68.991 L 122.167 85.241 L 139.298 88.261 A 3 3 0 0 1 137.183 88.801 L 87.221 82.662 A 3 3 0 0 1 85.3 81.626 L 102.653 82.84 L 103.804 66.38 L 86.347 65.159 L 85.204 81.507 A 3 3 0 0 1 84.594 79.475 L 85.442 67.35 A 3 3 0 0 0 82.66 64.148 L 38.105 61.007 A 3 3 0 0 0 37.894 61 L 3 61 A 3 3 0 0 1 1.016 60.25 L 18.25 60.25 L 18.25 43.75 L 0.75 43.75 L 0.75 59.984 A 3 3 0 0 1 0 58 Z M 0.75 42.25 L 18.25 42.25 L 18.25 25.75 L 0.75 25.75 L 0.75 42.25 Z M 0.75 24.25 L 18.25 24.25 L 18.25 7.75 L 0.75 7.75 L 0.75 24.25 Z M 19.75 60.25 L 37.25 60.25 L 37.25 43.75 L 19.75 43.75 L 19.75 60.25 Z M 19.75 42.25 L 37.25 42.25 L 37.25 25.75 L 19.75 25.75 L 19.75 42.25 Z M 19.75 24.25 L 37.25 24.25 L 37.25 7.75 L 19.75 7.75 L 19.75 24.25 Z M 38.75 57.25 L 56.25 57.25 L 56.25 40.75 L 38.75 40.75 L 38.75 57.25 Z M 38.75 39.25 L 56.25 39.25 L 56.25 22.75 L 38.75 22.75 L 38.75 39.25 Z M 38.75 21.25 L 56.25 21.25 L 56.25 4.75 L 38.75 4.75 L 38.75 21.25 Z M 57.75 53.25 L 75.25 53.25 L 75.25 36.75 L 57.75 36.75 L 57.75 53.25 Z M 57.75 35.25 L 75.25 35.25 L 75.25 18.75 L 57.75 18.75 L 57.75 35.25 Z M 57.75 17.25 L 75.25 17.25 L 75.25 0.75 L 57.75 0.75 L 57.75 17.25 Z M 76.75 56.25 L 94.25 56.25 L 94.25 39.75 L 76.75 39.75 L 76.75 56.25 Z M 76.75 38.25 L 94.25 38.25 L 94.25 21.75 L 76.75 21.75 L 76.75 38.25 Z M 76.75 20.25 L 94.25 20.25 L 94.25 3.75 L 76.75 3.75 L 76.75 20.25 Z M 95.75 59.25 L 113.25 59.25 L 113.25 42.75 L 95.75 42.75 L 95.75 59.25 Z M 95.75 41.25 L 113.25 41.25 L 113.25 24.75 L 95.75 24.75 L 95.75 41.25 Z M 95.75 23.25 L 113.25 23.25 L 113.25 6.75 L 95.75 6.75 L 95.75 23.25 Z M 103.729 82.946 L 121.098 85.079 L 123.109 68.702 L 105.739 66.569 L 103.729 82.946 Z" vector-effect="non-scaling-stroke"/></g></svg>