<svg width="141.516mm" height="87.53mm" viewBox="0 0 141.516 87.53" xmlns="http://www.w3.org/2000/svg"><g id="svgGroup" stroke-linecap="round" fill-rule="evenodd" font-size="9pt" stroke="#000" stroke-width="0.25mm" fill="none" style="stroke:#000;stroke-width:0.25mm;fill:none"><path d="M 0 59.5 L 17.5 59.5 L 17.5 43 L 0 43 L 0 59.5 Z M 0 41.5 L 17.5 41.5 L 17.5 25 L 0 25 L 0 41.5 Z M 0 23.5 L 17.5 23.5 L 17.5 7 L 0 7 L 0 23.5 Z M 19 59.5 L 36.5 59.5 L 36.5 43 L 19 43 L 19 59.5 Z M 19 41.5 L 36.5 41.5 L 36.5 25 L 19 25 L 19 41.5 Z M 19 23.5 L 36.5 23.5 L 36.5 7 L 19 7 L 19 23.5 Z M 38 56.5 L 55.5 56.5 L 55.5 40 L 38 40 L 38 56.5 Z M 38 38.5 L 55.5 38.5 L 55.5 22 L 38 22 L 38 38.5 Z M 38 20.5 L 55.5 20.5 L 55.5 4 L 38 4 L 38 20.5 Z M 57 52.5 L 74.5 52.5 L 74.5 36 L 57 36 L 57 52.5 Z M 57 34.5 L 74.5 34.5 L 74.5 18 L 57 18 L 57 34.5 Z M 57 16.5 L 74.5 16.5 L 74.5 0 L 57 0 L 57 16.5 Z M 76 55.5 L 93.5 55.5 L 93.5 39 L 76 39 L 76 55.5 Z M 76 37.5 L 93.5 37.5 L 93.5 21 L 76 21 L 76 37.5 Z M 76 19.5 L 93.5 19.5 L 93.5 3 L 76 3 L 76 19.5 Z M 95 58.5 L 112.5 58.5 L 112.5 42 L 95 42 L 95 58.5 Z M 95 40.5 L 112.5 40.5 L 112.5 24 L 95 24 L 95 40.5 Z M 95 22.5 L 112.5 22.5 L 112.5 6 L 95 6 L 95 22.5 Z M 84.446 80.87 L 101.903 82.09 L 103.054 65.63 L 85.597 64.41 L 84.446 80.87 Z M 121.417 84.491 L 138.651 87.53 L 141.516 71.281 L 124.282 68.242 L 121.417 84.491 Z M 102.979 82.196 L 120.348 84.329 L 122.359 67.952 L 104.989 65.819 L 102.979 82.196 Z" vector-effect="non-scaling-stroke"/></g></svg>