0
SECTION
2
HEADER
9
$INSUNITS
70
4
0
ENDSEC
0
SECTION
2
TABLES
0
TABLE
2
LTYPE
0
LTYPE
72
65
70
64
2
CONTINUOUS
3
______
73
0
40
0
0
ENDTAB
0
TABLE
2
LAYER
0
ENDTAB
0
ENDSEC
0
SECTION
2
ENTITIES
0
LINE
8
0
10
91.25
20
-108.25
11
108.75
21
-108.25
0
LINE
8
0
10
108.75
20
-108.25
11
108.75
21
-91.75
0
LINE
8
0
10
108.75
20
-91.75
11
91.25
21
-91.75
0
LINE
8
0
10
91.25
20
-91.75
11
91.25
21
-108.25
0
LINE
8
0
10
91.25
20
-90.25
11
108.75
21
-90.25
0
LINE
8
0
10
108.75
20
-90.25
11
108.75
21
-73.75
0
LINE
8
0
10
108.75
20
-73.75
11
91.25
21
-73.75
0
LINE
8
0
10
91.25
20
-73.75
11
91.25
21
-90.25
0
LINE
8
0
10
91.25
20
-72.25
11
108.75
21
-72.25
0
LINE
8
0
10
108.75
20
-72.25
11
108.75
21
-55.75
0
LINE
8
0
10
108.75
20
-55.75
11
91.25
21
-55.75
0
LINE
8
0
10
91.25
20
-55.75
11
91.25
21
-72.25
0
LINE
8
0
10
110.25
20
-108.25
11
127.75
21
-108.25
0
LINE
8
0
10
127.75
20
-108.25
11
127.75
21
-91.75
0
LINE
8
0
10
127.75
20
-91.75
11
110.25
21
-91.75
0
LINE
8
0
10
110.25
20
-91.75
11
110.25
21
-108.25
0
LINE
8
0
10
110.25
20
-90.25
11
127.75
21
-90.25
0
LINE
8
0
10
127.75
20
-90.25
11
127.75
21
-73.75
0
LINE
8
0
10
127.75
20
-73.75
11
110.25
21
-73.75
0
LINE
8
0
10
110.25
20
-73.75
11
110.25
21
-90.25
0
LINE
8
0
10
110.25
20
-72.25
11
127.75
21
-72.25
0
LINE
8
0
10
127.75
20
-72.25
11
127.75
21
-55.75
0
LINE
8
0
10
127.75
20
-55.75
11
110.25
21
-55.75
0
LINE
8
0
10
110.25
20
-55.75
11
110.25
21
-72.25
0
LINE
8
0
10
129.25
20
-105.25
11
146.75
21
-105.25
0
LINE
8
0
10
146.75
20
-105.25
11
146.75
21
-88.75
0
LINE
8
0
10
146.75
20
-88.75
11
129.25
21
-88.75
0
LINE
8
0
10
129.25
20
-88.75
11
129.25
21
-105.25
0
LINE
8
0
10
129.25
20
-87.25
11
146.75
21
-87.25
0
LINE
8
0
10
146.75
20
-87.25
11
146.75
21
-70.75
0
LINE
8
0
10
146.75
20
-70.75
11
129.25
21
-70.75
0
LINE
8
0
10
129.25
20
-70.75
11
129.25
21
-87.25
0
LINE
8
0
10
129.25
20
-69.25
11
146.75
21
-69.25
0
LINE
8
0
10
146.75
20
-69.25
11
146.75
21
-52.75
0
LINE
8
0
10
146.75
20
-52.75
11
129.25
21
-52.75
0
LINE
8
0
10
129.25
20
-52.75
11
129.25
21
-69.25
0
LINE
8
0
10
148.25
20
-101.25
11
165.75
21
-101.25
0
LINE
8
0
10
165.75
20
-101.25
11
165.75
21
-84.75
0
LINE
8
0
10
165.75
20
-84.75
11
148.25
21
-84.75
0
LINE
8
0
10
148.25
20
-84.75
11
148.25
21
-101.25
0
LINE
8
0
10
148.25
20
-83.25
11
165.75
21
-83.25
0
LINE
8
0
10
165.75
20
-83.25
11
165.75
21
-66.75
0
LINE
8
0
10
165.75
20
-66.75
11
148.25
21
-66.75
0
LINE
8
0
10
148.25
20
-66.75
11
148.25
21
-83.25
0
LINE
8
0
10
148.25
20
-65.25
11
165.75
21
-65.25
0
LINE
8
0
10
165.75
20
-65.25
11
165.75
21
-48.75
0
LINE
8
0
10
165.75
20
-48.75
11
148.25
21
-48.75
0
LINE
8
0
10
148.25
20
-48.75
11
148.25
21
-65.25
0
LINE
8
0
10
167.25
20
-104.25
11
184.75
21
-104.25
0
LINE
8
0
10
184.75
20
-104.25
11
184.75
21
-87.75
0
LINE
8
0
10
184.75
20
-87.75
11
167.25
21
-87.75
0
LINE
8
0
10
167.25
20
-87.75
11
167.25
21
-104.25
0
LINE
8
0
10
167.25
20
-86.25
11
184.75
21
-86.25
0
LINE
8
0
10
184.75
20
-86.25
11
184.75
21
-69.75
0
LINE
8
0
10
184.75
20
-69.75
11
167.25
21
-69.75
0
LINE
8
0
10
167.25
20
-69.75
11
167.25
21
-86.25
0
LINE
8
0
10
167.25
20
-68.25
11
184.75
21
-68.25
0
LINE
8
0
10
184.75
20
-68.25
11
184.75
21
-51.75
0
LINE
8
0
10
184.75
20
-51.75
11
167.25
21
-51.75
0
LINE
8
0
10
167.25
20
-51.75
11
167.25
21
-68.25
0
LINE
8
0
10
186.25
20
-107.25
11
203.75
21
-107.25
0
LINE
8
0
10
203.75
20
-107.25
11
203.75
21
-90.75
0
LINE
8
0
10
203.75
20
-90.75
11
186.25
21
-90.75
0
LINE
8
0
10
186.25
20
-90.75
11
186.25
21
-107.25
0
LINE
8
0
10
186.25
20
-89.25
11
203.75
21
-89.25
0
LINE
8
0
10
203.75
20
-89.25
11
203.75
21
-72.75
0
LINE
8
0
10
203.75
20
-72.75
11
186.25
21
-72.75
0
LINE
8
0
10
186.25
20
-72.75
11
186.25
21
-89.25
0
LINE
8
0
10
186.25
20
-71.25
11
203.75
21
-71.25
0
LINE
8
0
10
203.75
20
-71.25
11
203.75
21
-54.75
0
LINE
8
0
10
203.75
20
-54.75
11
186.25
21
-54.75
0
LINE
8
0
10
186.25
20
-54.75
11
186.25
21
-71.25
0
LINE
8
0
10
175.6958237
20
-129.6195343
11
193.1531945
21
-130.8402726
0
LINE
8
0
10
193.1531945
20
-130.8402726
11
194.3041763
21
-114.3804657
0
LINE
8
0
10
194.3041763
20
-114.3804657
11
176.8468055
21
-113.1597274
0
LINE
8
0
10
176.8468055
20
-113.1597274
11
175.6958237
21
-129.6195343
0
LINE
8
0
10
194.2286378
20
-130.946304
11
211.5981954
21
-133.0790175
0
LINE
8
0
10
211.5981954
20
-133.0790175
11
213.6090396
21
-116.702006
0
LINE
8
0
10
213.6090396
20
-116.702006
11
196.239482
21
-114.5692925
0
LINE
8
0
10
196.239482
20
-114.5692925
11
194.2286378
21
-130.946304
0
LINE
8
0
10
212.6666156
20
-133.2411881
11
229.9007513
21
-136.2800312
0
LINE
8
0
10
229.9007513
20
-136.2800312
11
232.7659462
21
-120.0307033
0
LINE
8
0
10
232.7659462
20
-120.0307033
11
215.5318105
21
-116.9918602
0
LINE
8
0
10
215.5318105
20
-116.9918602
11
212.6666156
21
-133.2411881
0
ENDSEC
0
EOF