<svg width="143.135mm" height="89.149mm" viewBox="0 0 143.135 89.149" xmlns="http://www.w3.org/2000/svg"><g id="svgGroup" stroke-linecap="round" fill-rule="evenodd" font-size="9pt" stroke="#000" stroke-width="0.25mm" fill="none" style="stroke:#000;stroke-width:0.25mm;fill:none"><path d="M 0 61 L 38 61 L 38 58 L 57 58 L 57 54 L 76 54 L 76 57 L 95 57 L 95 60 L 114 60 L 114 6 L 95 6 L 95 3 L 76 3 L 76 0 L 57 0 L 57 4 L 38 4 L 38 7 L 0 7 L 0 61 Z M 84.395 82.315 L 103.073 83.621 L 121.477 85.881 L 140.009 89.149 L 143.135 71.422 L 124.423 68.123 L 122.817 77.231 L 123.945 68.049 L 105.086 65.733 L 103.959 74.913 L 104.605 65.685 L 85.651 64.359 L 84.395 82.315 Z" vector-effect="non-scaling-stroke"/></g></svg>