0
SECTION
2
HEADER
9
$INSUNITS
70
4
0
ENDSEC
0
SECTION
2
TABLES
0
TABLE
2
LTYPE
0
LTYPE
72
65
70
64
2
CONTINUOUS
3
______
73
0
40
0
0
ENDTAB
0
TABLE
2
LAYER
0
ENDTAB
0
ENDSEC
0
SECTION
2
ENTITIES
0
LINE
8
0
10
90.5
20
-109
11
128.5
21
-109
0
LINE
8
0
10
90.5
20
-109
11
90.5
21
-55
0
LINE
8
0
10
90.5
20
-55
11
128.5
21
-55
0
LINE
8
0
10
128.5
20
-109
11
128.5
21
-106
0
LINE
8
0
10
128.5
20
-106
11
147.5
21
-106
0
LINE
8
0
10
147.5
20
-106
11
147.5
21
-102
0
LINE
8
0
10
147.5
20
-52
11
128.5
21
-52
0
LINE
8
0
10
128.5
20
-52
11
128.5
21
-55
0
LINE
8
0
10
147.5
20
-102
11
166.5
21
-102
0
LINE
8
0
10
166.5
20
-51
11
166.5
21
-48
0
LINE
8
0
10
166.5
20
-48
11
147.5
21
-48
0
LINE
8
0
10
147.5
20
-48
11
147.5
21
-52
0
LINE
8
0
10
166.5
20
-105
11
185.5
21
-105
0
LINE
8
0
10
166.5
20
-102
11
166.5
21
-105
0
LINE
8
0
10
185.5
20
-54
11
185.5
21
-51
0
LINE
8
0
10
185.5
20
-51
11
166.5
21
-51
0
LINE
8
0
10
185.5
20
-108
11
204.5
21
-108
0
LINE
8
0
10
204.5
20
-108
11
204.5
21
-54
0
LINE
8
0
10
185.5
20
-105
11
185.5
21
-108
0
LINE
8
0
10
204.5
20
-54
11
185.5
21
-54
0
LINE
8
0
10
174.8953333
20
-130.31539
11
193.573483
21
-131.6214935
0
LINE
8
0
10
194.4593332
20
-122.9133092
11
195.1046667
21
-113.68461
0
LINE
8
0
10
195.1046667
20
-113.68461
11
176.1509498
21
-112.359237
0
LINE
8
0
10
176.1509498
20
-112.359237
11
174.8953333
21
-130.31539
0
LINE
8
0
10
193.573483
20
-131.6214935
11
211.9770178
21
-133.8811634
0
LINE
8
0
10
213.3174094
20
-125.2312749
11
214.4448512
21
-116.0489984
0
LINE
8
0
10
214.4448512
20
-116.0489984
11
195.5864744
21
-113.7334809
0
LINE
8
0
10
195.5864744
20
-113.7334809
11
194.4593332
21
-122.9133092
0
LINE
8
0
10
211.9770178
20
-133.8811634
11
230.509121
21
-137.1488732
0
LINE
8
0
10
230.509121
20
-137.1488732
11
233.6347882
21
-119.4223336
0
LINE
8
0
10
233.6347882
20
-119.4223336
11
214.9234408
21
-116.1230182
0
LINE
8
0
10
214.9234408
20
-116.1230182
11
213.3174094
21
-125.2312749
0
ENDSEC
0
EOF