<svg width="142.142mm" height="89.062mm" viewBox="0 0 142.142 89.062" xmlns="http://www.w3.org/2000/svg"><g id="svgGroup" stroke-linecap="round" fill-rule="evenodd" font-size="9pt" stroke="#000" stroke-width="0.25mm" fill="none" style="stroke:#000;stroke-width:0.25mm;fill:none"><path d="M 105.083 65.794 L 122.949 67.988 L 120.755 85.854 L 102.889 83.66 L 105.083 65.794 Z M 124.416 68.21 L 142.142 71.336 L 139.017 89.062 L 121.29 85.936 L 124.416 68.21 Z M 0 43 L 18 43 L 18 61 L 0 61 L 0 43 Z M 18 43 L 18 25 L 0 25 L 0 43 L 18 43 Z M 0 25 L 18 25 L 18 7 L 0 7 L 0 25 Z M 19 43 L 37 43 L 37 61 L 19 61 L 19 43 Z M 37 43 L 37 25 L 19 25 L 19 43 L 37 43 Z M 19 25 L 37 25 L 37 7 L 19 7 L 19 25 Z M 38 40 L 56 40 L 56 58 L 38 58 L 38 40 Z M 56 40 L 56 22 L 38 22 L 38 40 L 56 40 Z M 38 22 L 56 22 L 56 4 L 38 4 L 38 22 Z M 57 36 L 75 36 L 75 54 L 57 54 L 57 36 Z M 75 36 L 75 18 L 57 18 L 57 36 L 75 36 Z M 57 18 L 75 18 L 75 0 L 57 0 L 57 18 Z M 76 39 L 94 39 L 94 57 L 76 57 L 76 39 Z M 94 39 L 94 21 L 76 21 L 76 39 L 94 39 Z M 76 21 L 94 21 L 94 3 L 76 3 L 76 21 Z M 95 42 L 113 42 L 113 60 L 95 60 L 95 42 Z M 113 42 L 113 24 L 95 24 L 95 42 L 113 42 Z M 95 24 L 113 24 L 113 6 L 95 6 L 95 24 Z M 85.65 64.394 L 103.606 65.65 L 102.35 83.606 L 84.394 82.35 L 85.65 64.394 Z" vector-effect="non-scaling-stroke"/></g></svg>